<!-- Generated by IcoMoon.io -->
<svg version="1.1" xmlns="http://www.w3.org/2000/svg" width="1024" height="1024" viewBox="0 0 1024 1024">
<title></title>
<g id="icomoon-ignore">
</g>
<path fill="none" stroke="#fff" stroke-linejoin="round" stroke-linecap="butt" stroke-miterlimit="4" stroke-width="42.6667" d="M449.57 762.647l-121.201 209.907-68.185-137.901-153.518 9.901 122.503-212.189c54.098 67.307 131.727 114.897 220.4 130.282z"></path>
<path fill="none" stroke="#fff" stroke-linejoin="round" stroke-linecap="butt" stroke-miterlimit="4" stroke-width="42.6667" d="M787.18 641.57l117.189 202.984-153.518-9.901-68.185 137.901-120.123-208.048c89.471-12.476 168.49-57.595 224.636-122.936z"></path>
<path fill="none" stroke="#fff" stroke-linejoin="miter" stroke-linecap="butt" stroke-miterlimit="4" stroke-width="42.6667" d="M874.667 405.333c0 200.295-162.371 362.667-362.667 362.667s-362.667-162.371-362.667-362.667c0-200.295 162.371-362.667 362.667-362.667s362.667 162.371 362.667 362.667z"></path>
<path fill="none" stroke="#406fe7" stroke-linejoin="miter" stroke-linecap="butt" stroke-miterlimit="4" stroke-width="42.6667" d="M746.667 405.333c0 129.603-105.064 234.667-234.667 234.667s-234.667-105.064-234.667-234.667c0-129.603 105.064-234.667 234.667-234.667s234.667 105.064 234.667 234.667z"></path>
</svg>
