<!-- Generated by IcoMoon.io -->
<svg version="1.1" xmlns="http://www.w3.org/2000/svg" width="1024" height="1024" viewBox="0 0 1024 1024">
<title></title>
<g id="icomoon-ignore">
</g>
<path fill="none" stroke="#fff" stroke-linejoin="miter" stroke-linecap="butt" stroke-miterlimit="4" stroke-width="42.6667" d="M85.333 341.333h853.333v512c0 23.564-19.103 42.667-42.667 42.667h-768c-23.564 0-42.667-19.103-42.667-42.667v-512z"></path>
<path fill="none" stroke="#fff" stroke-linejoin="miter" stroke-linecap="butt" stroke-miterlimit="4" stroke-width="42.6667" d="M128 128h768c23.564 0 42.667 19.103 42.667 42.667v170.667h-853.333v-170.667c0-23.564 19.103-42.667 42.667-42.667z"></path>
<path fill="#d4d4d4" d="M661.333 234.667c0 23.564-19.103 42.667-42.667 42.667s-42.667-19.103-42.667-42.667c0-23.564 19.103-42.667 42.667-42.667s42.667 19.103 42.667 42.667z"></path>
<path fill="#406fe7" d="M768 234.667c0 23.564-19.103 42.667-42.667 42.667s-42.667-19.103-42.667-42.667c0-23.564 19.103-42.667 42.667-42.667s42.667 19.103 42.667 42.667z"></path>
<path fill="#fff" d="M874.667 234.667c0 23.564-19.103 42.667-42.667 42.667s-42.667-19.103-42.667-42.667c0-23.564 19.103-42.667 42.667-42.667s42.667 19.103 42.667 42.667z"></path>
<path fill="none" stroke="#406fe7" stroke-linejoin="round" stroke-linecap="round" stroke-miterlimit="4" stroke-width="42.6667" d="M563.219 499.2l-112.119 253.45"></path>
<path fill="none" stroke="#406fe7" stroke-linejoin="round" stroke-linecap="round" stroke-miterlimit="4" stroke-width="42.6667" d="M402.144 535.037l-158.944 90.242 158.944 92.727"></path>
<path fill="none" stroke="#406fe7" stroke-linejoin="round" stroke-linecap="round" stroke-miterlimit="4" stroke-width="42.6667" d="M614.4 535.037l158.944 90.242-158.944 92.727"></path>
</svg>
