<!-- Generated by IcoMoon.io -->
<svg version="1.1" xmlns="http://www.w3.org/2000/svg" width="1024" height="1024" viewBox="0 0 1024 1024">
<title></title>
<g id="icomoon-ignore">
</g>
<path fill="none" stroke="#fff" stroke-linejoin="miter" stroke-linecap="butt" stroke-miterlimit="4" stroke-width="42.6667" d="M896 149.333c23.564 0 42.667 19.103 42.667 42.667v469.333c0 23.564-19.103 42.667-42.667 42.667l-45.359 0.016c1.758-6.823 2.693-13.977 2.693-21.35 0-47.128-38.205-85.333-85.333-85.333s-85.333 38.205-85.333 85.333c0 7.372 0.935 14.526 2.693 21.35h-90.718c1.758-6.823 2.693-13.977 2.693-21.35 0-47.128-38.205-85.333-85.333-85.333s-85.333 38.205-85.333 85.333c0 7.372 0.935 14.526 2.693 21.35h-90.718c1.758-6.823 2.693-13.977 2.693-21.35 0-47.128-38.205-85.333-85.333-85.333s-85.333 38.205-85.333 85.333c0 7.372 0.935 14.526 2.693 21.35l-45.359-0.016c-23.564 0-42.667-19.103-42.667-42.667v-469.333c0-23.564 19.103-42.667 42.667-42.667h768z"></path>
<path fill="none" stroke="#fff" stroke-linejoin="miter" stroke-linecap="butt" stroke-miterlimit="4" stroke-width="42.6667" d="M128 149.333h768c23.564 0 42.667 19.103 42.667 42.667v128h-853.333v-128c0-23.564 19.103-42.667 42.667-42.667z"></path>
<path fill="none" stroke="#fff" stroke-linejoin="round" stroke-linecap="butt" stroke-miterlimit="4" stroke-width="42.6667" d="M768 768c70.692 0 128 57.308 128 128v0 0h-256c0-70.692 57.308-128 128-128z"></path>
<path fill="none" stroke="#fff" stroke-linejoin="round" stroke-linecap="butt" stroke-miterlimit="4" stroke-width="42.6667" d="M256 768c70.692 0 128 57.308 128 128v0 0h-256c0-70.692 57.308-128 128-128z"></path>
<path fill="none" stroke="#fff" stroke-linejoin="round" stroke-linecap="butt" stroke-miterlimit="4" stroke-width="42.6667" d="M853.333 682.667c0 47.128-38.205 85.333-85.333 85.333s-85.333-38.205-85.333-85.333c0-47.128 38.205-85.333 85.333-85.333s85.333 38.205 85.333 85.333z"></path>
<path fill="none" stroke="#fff" stroke-linejoin="round" stroke-linecap="butt" stroke-miterlimit="4" stroke-width="42.6667" d="M341.333 682.667c0 47.128-38.205 85.333-85.333 85.333s-85.333-38.205-85.333-85.333c0-47.128 38.205-85.333 85.333-85.333s85.333 38.205 85.333 85.333z"></path>
<path fill="none" stroke="#406fe7" stroke-linejoin="round" stroke-linecap="butt" stroke-miterlimit="4" stroke-width="42.6667" d="M512 768c70.692 0 128 57.308 128 128v0 0h-256c0-70.692 57.308-128 128-128z"></path>
<path fill="none" stroke="#406fe7" stroke-linejoin="round" stroke-linecap="butt" stroke-miterlimit="4" stroke-width="42.6667" d="M597.333 682.667c0 47.128-38.205 85.333-85.333 85.333s-85.333-38.205-85.333-85.333c0-47.128 38.205-85.333 85.333-85.333s85.333 38.205 85.333 85.333z"></path>
</svg>
