<!-- Generated by IcoMoon.io -->
<svg version="1.1" xmlns="http://www.w3.org/2000/svg" width="32" height="32" viewBox="0 0 32 32">
<title></title>
<g id="icomoon-ignore">
</g>
<path fill="#406fe7" style="fill: var(--color1, #406fe7)" opacity="0.4" d="M17.6 16c0 3.756-3.044 6.8-6.8 6.8s-6.8-3.044-6.8-6.8c0-3.756 3.044-6.8 6.8-6.8s6.8 3.044 6.8 6.8z"></path>
<path fill="none" stroke="#fff" style="stroke: var(--color2, #fff)" stroke-linejoin="miter" stroke-linecap="butt" stroke-miterlimit="4" stroke-width="0.8" d="M24.447 6.292c-0.625 0.625-0.607 1.656 0.040 2.302s1.677 0.664 2.302 0.040c0.625-0.625 0.607-1.656-0.040-2.302s-1.677-0.664-2.302-0.040z"></path>
<path fill="none" stroke="#fff" style="stroke: var(--color2, #fff)" stroke-linejoin="round" stroke-linecap="round" stroke-miterlimit="4" stroke-width="0.8" d="M24.487 8.594l-2.263 2.263"></path>
<path fill="none" stroke="#fff" style="stroke: var(--color2, #fff)" stroke-linejoin="miter" stroke-linecap="butt" stroke-miterlimit="4" stroke-width="0.8" d="M21.402 12.515l-4.996-2.81c-0.248-0.139-0.553-0.139-0.8 0l-4.996 2.81c-0.248 0.139-0.4 0.397-0.4 0.675v5.62c0 0.279 0.152 0.536 0.4 0.675l4.996 2.81c0.248 0.139 0.553 0.139 0.8 0l4.996-2.81c0.248-0.139 0.4-0.397 0.4-0.675v-5.62c0-0.279-0.152-0.536-0.4-0.675z"></path>
<path fill="#406fe7" style="fill: var(--color1, #406fe7)" d="M20.608 14.591c-0.256 0.315-0.912 0.443-1.434 0.281-0.498-0.155-0.659-0.51-0.389-0.79 0.26-0.27 0.842-0.386 1.326-0.264 0.506 0.127 0.742 0.471 0.497 0.774zM17.001 17.398c0.55 0.261 0.713 0.864 0.317 1.354-0.416 0.517-1.248 0.666-1.805 0.327-0.524-0.319-0.571-0.936-0.149-1.375 0.402-0.419 1.116-0.554 1.636-0.306zM16.078 12.803l0.016 0.003c0.155 0.039 0.253 0.111 0.29 0.2l0.002 0c0 0.002 0.001 0.004 0.001 0.007 0.006 0.016 0.011 0.032 0.013 0.049 0.037 0.095 0.143 0.176 0.315 0.223 0.169 0.045 0.371 0.049 0.566 0.017 0.235-0.061 0.501-0.071 0.729-0.014 0.416 0.104 0.559 0.397 0.296 0.659-0.273 0.271-0.858 0.388-1.28 0.256-0.235-0.073-0.365-0.225-0.372-0.353-0.005-0.098-0.157-0.188-0.324-0.236-0.168-0.049-0.362-0.044-0.557-0.021-0.050 0.006-0.154 0.028-0.221 0.050-0.179 0.058-0.334 0.124-0.464 0.228-0.161 0.13-0.214 0.362-0.211 0.448 0.005 0.12 0.119 0.224 0.293 0.287 0.171 0.063 0.383 0.074 0.595 0.041 0.258-0.068 0.541-0.070 0.773 0.009 0.425 0.146 0.532 0.518 0.211 0.838-0.335 0.333-0.979 0.458-1.407 0.275-0.237-0.102-0.321-0.287-0.333-0.459-0.010-0.134-0.133-0.241-0.301-0.308s-0.366-0.065-0.586-0.047c-0.029 0.002-0.16 0.028-0.241 0.049-0.111 0.028-0.338 0.090-0.528 0.273-0.151 0.145-0.218 0.281-0.256 0.363-0.022 0.047-0.049 0.154-0.050 0.19-0.005 0.151 0.083 0.287 0.254 0.375 0.169 0.086 0.392 0.109 0.623 0.077 0.287-0.076 0.588-0.068 0.821 0.043 0.428 0.204 0.478 0.688 0.076 1.087-0.421 0.419-1.138 0.553-1.562 0.295-0.232-0.141-0.3-0.354-0.267-0.603l-0-0.001c0-0.001-0.001-0.059-0.009-0.090 0-0-0.006-0.049-0.038-0.112-0.043-0.085-0.115-0.155-0.211-0.209-0.165-0.093-0.384-0.117-0.612-0.084-0.286 0.075-0.565 0.065-0.748-0.047-0.313-0.19-0.219-0.594 0.182-0.899 0.207-0.157 0.46-0.261 0.698-0.301l0.001-0.001c0.227-0.045 0.461-0.145 0.643-0.288 0.18-0.14 0.273-0.293 0.281-0.425l0.001-0.001c0.001-0.003 0.003-0.071-0.010-0.143-0.008-0.114-0.002-0.227 0.104-0.35 0.068-0.079 0.216-0.155 0.377-0.184 0.111-0.020 0.253-0.016 0.334-0.020 0.070-0.004 0.191-0.017 0.234-0.030 0.163-0.047 0.26-0.101 0.381-0.195 0.123-0.096 0.2-0.197 0.213-0.289 0.003-0.020 0.010-0.11 0.008-0.12-0.041-0.216 0.268-0.453 0.69-0.53 0.214-0.039 0.416-0.029 0.568 0.019z"></path>
<path fill="none" stroke="#fff" style="stroke: var(--color2, #fff)" stroke-linejoin="miter" stroke-linecap="butt" stroke-miterlimit="4" stroke-width="0.8" d="M24.447 25.696c-0.625-0.625-0.607-1.656 0.040-2.302s1.677-0.664 2.302-0.040c0.625 0.625 0.607 1.656-0.040 2.302s-1.677 0.664-2.302 0.040z"></path>
<path fill="none" stroke="#fff" style="stroke: var(--color2, #fff)" stroke-linejoin="round" stroke-linecap="round" stroke-miterlimit="4" stroke-width="0.8" d="M24.487 23.394l-2.263-2.263"></path>
<path fill="none" stroke="#fff" style="stroke: var(--color2, #fff)" stroke-linejoin="miter" stroke-linecap="butt" stroke-miterlimit="4" stroke-width="0.8" d="M7.553 6.292c0.625 0.625 0.607 1.656-0.040 2.302s-1.678 0.664-2.302 0.040c-0.625-0.625-0.607-1.656 0.040-2.302s1.678-0.664 2.302-0.040z"></path>
<path fill="none" stroke="#fff" style="stroke: var(--color2, #fff)" stroke-linejoin="round" stroke-linecap="round" stroke-miterlimit="4" stroke-width="0.8" d="M7.513 8.594l2.263 2.263"></path>
<path fill="none" stroke="#fff" style="stroke: var(--color2, #fff)" stroke-linejoin="miter" stroke-linecap="butt" stroke-miterlimit="4" stroke-width="0.8" d="M7.553 25.696c0.625-0.625 0.607-1.656-0.040-2.302s-1.678-0.664-2.302-0.040c-0.625 0.625-0.607 1.656 0.040 2.302s1.678 0.664 2.302 0.040z"></path>
<path fill="none" stroke="#fff" style="stroke: var(--color2, #fff)" stroke-linejoin="round" stroke-linecap="round" stroke-miterlimit="4" stroke-width="0.8" d="M7.513 23.394l2.263-2.263"></path>
</svg>
