<svg xmlns="http://www.w3.org/2000/svg" xmlns:xlink="http://www.w3.org/1999/xlink" width="80px" height="80px" viewBox="0 0 80 80" version="1.1">
    <title></title>
    <g id="插画/dark/未选中/20" stroke="none" stroke-width="1" fill="none" fill-rule="evenodd">
        <path d="M17,18 L63,18 C65.209139,18 67,19.790861 67,22 L67,30.6 L67,30.6 L13,30.6 L13,22 C13,19.790861 14.790861,18 17,18 Z" id="矩形" stroke="#FFFFFF" stroke-width="2"/>
        <circle id="椭圆形" fill="#FFFFFF" cx="59.8" cy="24.3" r="1.8"/>
        <circle id="椭圆形" fill="#406FE7" cx="54.4" cy="24.3" r="1.8"/>
        <circle id="椭圆形" fill="#E5E5E5" cx="49" cy="24.3" r="1.8"/>
        <path d="M62,53 L67,57.8528137 M62,63 L67,58.1471863 M66,57.5 L50,57.5" id="形状结合" stroke="#406FE7" stroke-width="2" stroke-linecap="round" stroke-linejoin="round"/>
        <path d="M67,47.7 L67,30.6 L13,30.6 L13,58.8646026 C13,61.0663005 14.7792637,62.8540642 16.9809366,62.8645572 L45.4,63 L45.4,63" id="路径-22" stroke="#FFFFFF" stroke-width="2" stroke-linecap="round" stroke-linejoin="round"/>
        <rect id="矩形" stroke="#FFFFFF" stroke-width="2" stroke-linejoin="round" x="20.2" y="37.8" width="23.4" height="18"/>
        <rect id="矩形" stroke="#FFFFFF" stroke-width="2" stroke-linejoin="round" x="49" y="37.8" width="10.8" height="5.4"/>
    </g>
</svg>