<!-- Generated by IcoMoon.io -->
<svg version="1.1" xmlns="http://www.w3.org/2000/svg" width="32" height="32" viewBox="0 0 32 32">
<title></title>
<g id="icomoon-ignore">
</g>
<path fill="none" stroke="#fff" style="stroke: var(--color1, #fff)" stroke-linejoin="round" stroke-linecap="round" stroke-miterlimit="4" stroke-width="0.8" d="M6.8 5.2v22"></path>
<path fill="none" stroke="#fff" style="stroke: var(--color1, #fff)" stroke-linejoin="miter" stroke-linecap="butt" stroke-miterlimit="4" stroke-width="0.8" d="M13.6 18v-9.6"></path>
<path fill="none" stroke="#fff" style="stroke: var(--color1, #fff)" stroke-linejoin="round" stroke-linecap="round" stroke-miterlimit="4" stroke-width="0.8" d="M6.8 6.8h6c0.442 0 0.8 0.358 0.8 0.8v0.811c0 0.442 0.358 0.8 0.8 0.8h8.4c0.442 0 0.8 0.358 0.8 0.8v3.989"></path>
<path fill="none" stroke="#fff" style="stroke: var(--color1, #fff)" stroke-linejoin="round" stroke-linecap="round" stroke-miterlimit="4" stroke-width="0.8" d="M6.8 17.161h6c0.442 0 0.8 0.358 0.8 0.8v0.439c0 0.442 0.358 0.8 0.8 0.8h0.4"></path>
<path fill="none" stroke="#fff" style="stroke: var(--color1, #fff)" stroke-linejoin="miter" stroke-linecap="butt" stroke-miterlimit="4" stroke-width="0.8" d="M26.813 17.315l-4.827-2.81c-0.239-0.139-0.534-0.139-0.773 0l-4.827 2.81c-0.239 0.139-0.387 0.397-0.387 0.675v5.62c0 0.279 0.147 0.536 0.387 0.675l4.827 2.81c0.239 0.139 0.534 0.139 0.773 0l4.827-2.81c0.239-0.139 0.387-0.397 0.387-0.675v-5.62c0-0.279-0.147-0.536-0.387-0.675z"></path>
<path fill="#406fe7" style="fill: var(--color2, #406fe7)" d="M26.047 19.391c-0.247 0.315-0.882 0.443-1.386 0.281-0.481-0.155-0.636-0.51-0.376-0.79 0.251-0.27 0.813-0.386 1.281-0.264 0.489 0.127 0.717 0.471 0.48 0.774zM22.561 22.198c0.531 0.261 0.689 0.864 0.307 1.354-0.402 0.517-1.206 0.666-1.744 0.327-0.506-0.319-0.551-0.936-0.144-1.375 0.388-0.419 1.078-0.554 1.581-0.306zM21.669 17.603c0.005 0.001 0.010 0.002 0.015 0.003 0.149 0.039 0.244 0.111 0.28 0.2l0.002 0c0 0.002 0.001 0.004 0.001 0.007 0.006 0.016 0.010 0.032 0.012 0.049 0.035 0.095 0.138 0.176 0.305 0.223 0.164 0.045 0.358 0.049 0.547 0.017 0.227-0.061 0.484-0.071 0.704-0.014 0.402 0.105 0.54 0.397 0.286 0.659-0.263 0.271-0.828 0.388-1.237 0.256-0.227-0.073-0.352-0.225-0.359-0.353-0.005-0.098-0.152-0.188-0.313-0.236-0.162-0.049-0.35-0.044-0.538-0.021-0.048 0.006-0.149 0.028-0.213 0.050-0.173 0.058-0.323 0.124-0.448 0.228-0.155 0.13-0.207 0.362-0.204 0.448 0.005 0.12 0.115 0.224 0.283 0.287 0.165 0.063 0.37 0.074 0.574 0.041 0.25-0.068 0.523-0.070 0.747 0.009 0.41 0.146 0.514 0.518 0.204 0.838-0.323 0.333-0.946 0.458-1.36 0.275-0.229-0.102-0.31-0.287-0.322-0.459-0.010-0.134-0.129-0.241-0.291-0.308s-0.354-0.065-0.567-0.047c-0.028 0.002-0.155 0.028-0.233 0.049-0.107 0.028-0.326 0.090-0.51 0.273-0.146 0.145-0.21 0.281-0.248 0.363-0.021 0.047-0.047 0.154-0.048 0.19-0.005 0.151 0.080 0.287 0.246 0.375 0.163 0.086 0.379 0.109 0.602 0.077 0.277-0.076 0.568-0.068 0.794 0.043 0.414 0.204 0.462 0.688 0.073 1.087-0.407 0.419-1.099 0.553-1.509 0.295-0.225-0.141-0.29-0.354-0.258-0.603l-0-0.001c-0-0.002-0.001-0.060-0.009-0.091 0-0-0.006-0.049-0.037-0.112-0.042-0.085-0.111-0.155-0.204-0.209-0.16-0.093-0.371-0.117-0.591-0.084-0.276 0.075-0.546 0.065-0.723-0.047-0.302-0.19-0.212-0.594 0.176-0.899 0.2-0.157 0.444-0.261 0.674-0.301l0.001-0.001c0.219-0.045 0.445-0.145 0.622-0.288 0.173-0.14 0.264-0.293 0.272-0.425l0.001-0.001c0.001-0.003 0.003-0.071-0.009-0.143-0.008-0.114-0.002-0.227 0.101-0.35 0.066-0.078 0.208-0.155 0.364-0.184 0.107-0.020 0.244-0.016 0.322-0.020 0.067-0.004 0.185-0.017 0.226-0.030 0.157-0.047 0.251-0.101 0.368-0.195 0.119-0.096 0.193-0.197 0.206-0.289 0.003-0.020 0.009-0.11 0.007-0.12-0.040-0.216 0.259-0.453 0.667-0.529 0.207-0.039 0.402-0.029 0.549 0.019z"></path>
</svg>
