<!-- Generated by IcoMoon.io -->
<svg version="1.1" xmlns="http://www.w3.org/2000/svg" width="32" height="32" viewBox="0 0 32 32">
<title></title>
<g id="icomoon-ignore">
</g>
<path fill="#406fe7" style="fill: var(--color1, #406fe7)" opacity="0.4" d="M17.2 20.4c0 3.756-3.044 6.8-6.8 6.8s-6.8-3.044-6.8-6.8c0-3.756 3.044-6.8 6.8-6.8s6.8 3.044 6.8 6.8z"></path>
<path fill="none" stroke="#fff" style="stroke: var(--color2, #fff)" stroke-linejoin="miter" stroke-linecap="butt" stroke-miterlimit="4" stroke-width="0.8" d="M17.2 9.6h3.2v7.2h-3.2v-7.2z"></path>
<path fill="none" stroke="#fff" style="stroke: var(--color2, #fff)" stroke-linejoin="miter" stroke-linecap="butt" stroke-miterlimit="4" stroke-width="0.8" d="M20.4 8h3.2v8.8h-3.2v-8.8z"></path>
<path fill="none" stroke="#406fe7" style="stroke: var(--color1, #406fe7)" stroke-linejoin="miter" stroke-linecap="butt" stroke-miterlimit="4" stroke-width="0.8" d="M8.4 8.8l1.605-1.6h7.195v9.6h-8.8z"></path>
<path fill="#406fe7" style="fill: var(--color1, #406fe7)" d="M10.4 7.2v2h-2z"></path>
<path fill="none" stroke="#fff" style="stroke: var(--color2, #fff)" stroke-linejoin="round" stroke-linecap="butt" stroke-miterlimit="4" stroke-width="0.8" d="M6.8 16.8h18.4v6.4c0 0.884-0.716 1.6-1.6 1.6h-15.2c-0.884 0-1.6-0.716-1.6-1.6v-6.4z"></path>
<path fill="none" stroke="#fff" style="stroke: var(--color2, #fff)" stroke-linejoin="miter" stroke-linecap="butt" stroke-miterlimit="4" stroke-width="0.8" d="M13.6 19.2h4.8c0.221 0 0.4 0.179 0.4 0.4v1.6c0 0.221-0.179 0.4-0.4 0.4h-4.8c-0.221 0-0.4-0.179-0.4-0.4v-1.6c0-0.221 0.179-0.4 0.4-0.4z"></path>
</svg>
