<!-- Generated by IcoMoon.io -->
<svg version="1.1" xmlns="http://www.w3.org/2000/svg" width="1024" height="1024" viewBox="0 0 1024 1024">
<title></title>
<g id="icomoon-ignore">
</g>
<path fill="none" stroke="#fff" stroke-linejoin="miter" stroke-linecap="butt" stroke-miterlimit="4" stroke-width="25.6" d="M573.523 128c7.069 0 12.8 5.731 12.8 12.8l0.007 70.501c30.618 7.543 59.443 19.64 85.716 35.532l49.879-49.864c4.999-4.999 13.103-4.999 18.102 0l87.006 87.006c4.999 4.999 4.999 13.103 0 18.102l-49.864 49.879c15.892 26.273 27.989 55.098 35.532 85.716l70.501 0.007c7.069 0 12.8 5.731 12.8 12.8v123.045c0 7.069-5.731 12.8-12.8 12.8l-70.501 0.007c-7.543 30.618-19.64 59.443-35.532 85.716l49.864 49.879c4.999 4.999 4.999 13.103 0 18.102l-87.006 87.006c-4.999 4.999-13.103 4.999-18.102 0l-49.879-49.864c-26.273 15.892-55.098 27.989-85.716 35.532l-0.007 70.501c0 7.069-5.731 12.8-12.8 12.8h-123.045c-7.069 0-12.8-5.731-12.8-12.8l-0.007-70.501c-30.618-7.543-59.443-19.64-85.716-35.532l-49.879 49.864c-4.999 4.999-13.103 4.999-18.102 0l-87.006-87.006c-4.999-4.999-4.999-13.103 0-18.102l49.864-49.879c-15.892-26.273-27.989-55.098-35.532-85.716l-70.501-0.007c-7.069 0-12.8-5.731-12.8-12.8v-123.045c0-7.069 5.731-12.8 12.8-12.8l70.501-0.007c7.543-30.618 19.64-59.443 35.532-85.716l-49.864-49.879c-4.999-4.999-4.999-13.103 0-18.102l87.006-87.006c4.999-4.999 13.103-4.999 18.102 0l49.879 49.864c26.273-15.892 55.098-27.989 85.716-35.532l0.007-70.501c0-7.069 5.731-12.8 12.8-12.8h123.045z"></path>
<path fill="#406fe7" d="M512 396.8c21.507 0 41.638 5.894 58.865 16.154-6.426-2.18-13.308-3.354-20.465-3.354-35.346 0-64 28.654-64 64s28.654 64 64 64c35.346 0 64-28.654 64-64 0-7.157-1.175-14.039-3.342-20.464 10.248 17.227 16.142 37.357 16.142 58.864 0 50.156-32.053 92.826-76.793 108.642l-0.007 108.958h-76.8l0.005-108.953c-44.746-15.813-76.805-58.486-76.805-108.647 0-63.623 51.577-115.2 115.2-115.2z"></path>
<path fill="none" stroke="#fff" stroke-linejoin="miter" stroke-linecap="butt" stroke-miterlimit="4" stroke-width="25.6" d="M729.6 512c0 120.177-97.423 217.6-217.6 217.6s-217.6-97.423-217.6-217.6c0-120.177 97.423-217.6 217.6-217.6s217.6 97.423 217.6 217.6z"></path>
</svg>
